<?xml version="1.0" encoding="utf-8"?>
<!-- Generator: Adobe Illustrator 26.0.3, SVG Export Plug-In . SVG Version: 6.00 Build 0)  -->
<svg version="1.1" id="Layer_1" xmlns="http://www.w3.org/2000/svg" xmlns:xlink="http://www.w3.org/1999/xlink" x="0px" y="0px"
	 viewBox="0 0 491.5 491.5" style="enable-background:new 0 0 491.5 491.5;" xml:space="preserve">
<path d="M120.6,348.3c10.9-9.1,21.4-17.9,31.9-26.7c3.7-3.1,7.2-6.4,10.9-9.5c3.4-2.8,6.9-5.3,10.3-8.1c4.8-3.9,9.5-8,14.2-12
	s9.6-8.5,14.5-12.6c6.1-5.1,12.3-10,18.4-15c5.5-4.5,10.9-9,16.3-13.7c0.8-0.7,1.2-1.7,1.3-2.8c0.1-43.3,0.1-86.6,0.1-129.9
	c0-2.3-0.8-2.9-2.9-2.9c-5.2,0.1-10.4,0-15.6,0c-5.4,0-11-5.5-10.8-10.8c0.1-2.7-0.1-5.8,1.1-8c2.4-4.5,5.9-7.8,11.8-7.5
	c4.4,0.3,8.9,0.1,13.4,0c0.9,0,1.9-0.1,3.1-0.2c0-4.3,0.2-8.4-0.1-12.6c-0.3-5.6,7.6-13.8,13.5-12.9c5.2,0.9,8.6,4.1,10.7,8.6
	c1.1,2.3,1.1,5,1.4,7.6c0.1,2.1,0.1,4.2,0,6.2c0,3.2,0,3.2,3.1,3.2c4.7,0,9.4,0,14.1,0c6.6,0,11.8,5.4,12.2,12
	c0.3,5.4-1.5,9.4-5.8,12.3c-1.5,1-3.3,1.7-5.2,1.8c-5.1,0.2-10.2,0.2-15.3,0c-2.3,0-3.1,0.6-3.1,3c0,42.5,0,85.1,0,127.6
	c-0.1,1.7,0.7,3.2,2,4.2c7.1,5.8,14.1,11.6,21.1,17.5c12.9,10.8,25.8,21.6,38.7,32.5c12.3,10.3,24.5,20.5,36.8,30.8
	c5.8,4.9,11.7,9.8,17.5,14.7c1.7,1.5,2.9,1.2,4.2-0.4c3.2-3.8,6.4-7.6,9.5-11.5c2.9-3.3,7.4-4.7,11.7-3.6c6.9,1.9,10.9,9,9.1,15.9
	c-0.6,2-2.4,3.7-3.7,5.4c-2.6,3.3-5.3,6.5-8.1,9.6c-1.4,1.6-1.1,2.7,0.3,4c3.2,2.5,6.2,5.1,9.1,7.9c4.6,4.8,4.5,15.1-2.4,18.9
	c-5.1,2.8-11.4,2.1-15.8-1.8c-2.4-2.1-4.9-4.1-7.3-6.2c-1.2-1.1-2.2-1-3.2,0.2c-3.4,4.1-6.9,8-10.2,12.2c-3.1,4-7.4,4.8-11.7,3.8
	c-7.7-1.9-12.2-9.6-8.9-16.9c1.3-2.8,3.9-5.1,6-7.6s4-4.8,6.1-7.2c0.9-0.7,1-2,0.3-2.8c-0.2-0.2-0.4-0.4-0.6-0.5
	c-10.7-8.9-21.4-17.9-32.1-26.9c-10.6-8.9-21.2-17.9-31.9-26.9c-13-10.9-25.9-21.8-38.9-32.6c-3.1-2.6-6.4-4.8-9.9-7.4
	c-3.9,3.5-7.7,6.9-11.6,10.2c-5.6,4.7-11.2,9.2-16.9,13.8c-6,5-12,9.9-18,14.9c-4.5,3.8-9,7.5-13.4,11.3c-7.4,6.2-14.7,12.5-22,18.7
	c-8.1,6.8-16.2,13.5-24.3,20.3c-2.4,2-4.7,4-7.1,6c-1.4,1.1-1.4,2.2-0.2,3.6c3.6,4.1,6.8,8.4,10.5,12.4c3.1,3.3,2.6,7.2,1.7,10.8
	c-1.6,6-9.1,10.5-15.9,8.1c-3.7-1.4-5.4-4.2-7.6-6.7c-3.1-3.4-5.9-7-9-10.7c-2.9,2.5-5.8,4.7-8.4,7.2c-4.9,4.5-10.5,4.7-16.3,2.5
	c-3.7-1.4-6-7.4-5.6-11.8c0.5-5.3,3.2-8.9,7.5-11.6c1.8-1.2,3.4-2.8,5.2-4.1c1.2-0.9,1-1.8,0.1-2.8c-3.6-4.3-7.3-8.6-10.8-13.1
	c-0.9-1.2-1.5-2.7-1.6-4.2c0-2.6-0.2-5.7,1.1-7.8c2.1-3.5,5-6.9,9.9-6.6c2.3,0.1,4.5,0.4,6.7,1c1.2,0.5,2.2,1.4,3,2.4
	c3,3.5,5.9,7.1,9,10.7C118.5,346.5,119.5,347.5,120.6,348.3z"/>
<path d="M146.7,182.4c0,0.7-0.1,1.4-0.1,2.2c0,9,0,18.1,0,27.1c0,0.8,0,1.6,0.1,2.4c0.4,4,0.9,4.6,4.9,4.7c7,0.1,13.9,0.2,20.8-0.1
	c9-0.4,14.5-4.8,17.6-13.4c0.3-0.9,0.7-1.8,1.1-2.6c0.6-1.8,2.5-2.7,4.3-2.1c0,0,0.1,0,0.1,0c1.9,0.6,3.1,1.7,2.8,3.8
	c-0.6,3.4-1.3,6.7-2.1,10s-1.6,6.4-2.2,9.7c-0.7,3.8-2.1,4.9-6,4.9c-21.7-0.1-43.4-0.2-65.2-0.1c-4.6,0-5.4-2.3-4.8-4.6
	c0.5-1.1,1.3-2,2.5-2.5c1.8-0.5,3.7-0.8,5.6-1c2.1-0.2,3.7-1.9,3.7-4c1.4-24.8,1.5-49.7,0.1-74.5c-0.1-2.1-1.1-3.2-3.3-3.2
	c-1.5,0-3-0.2-4.5-0.6c-2.1-0.5-3.2-1.9-2.8-4.1c0.2-1.9,1.9-3.3,3.8-3.2c3,0,5.9,0.2,8.9,0.2c19.3-0.1,38.7-0.1,58-0.4
	c5.2-0.1,5.1,2.2,4.8,5.7c-0.5,5.5-1,10.9-1.4,16.4c-0.3,3.8-2.1,5.4-5.3,4.5c-1.6-0.3-2.8-1.8-2.7-3.4c-0.1-2.7-0.5-5.4-1-8
	c-0.5-2.5-2.9-4.1-5.9-4.6c-9.3-1.7-18.6-0.9-28-0.9c-4,0-4.2,0.3-4.2,4.2V173c0.9,0.1,1.6,0.2,2.3,0.2c6.8,0,13.6,0.1,20.4-0.1
	c2.3,0.1,4.6-0.3,6.8-1.1c2.9-1.3,3.1-4.3,3.3-7.1c0.2-3.2,3-4.8,5.7-3.2c0.7,0.6,1.2,1.3,1.4,2.2c0.1,0.6,0.1,1.3,0,1.9
	c0,8.4,0,16.8,0,25.1c0,2.3-1.2,3.9-3,4.1c-2.4,0.3-3.7-0.7-4.3-3.3c-0.4-1.7-0.3-3.6-1-5.1c-1.1-2.7-3.8-3.8-6.3-4
	c-8.2-0.5-16.4-0.5-24.6-0.7C147.2,182.1,147,182.2,146.7,182.4z"/>
<path d="M334.7,172.6c0-7.5,0.1-15,0-22.5c-0.1-2.6-0.4-5.2-1-7.8c-0.3-1.9-1.9-3.3-3.8-3.3c-2.2-0.2-4.4-0.6-6.6-0.9
	s-3.3-1.6-3.2-3.6c0.2-1.9,1.7-3.4,3.6-3.4c12.8,0,25.6,0,38.4,0c2.1,0,3.2,1.4,3.3,3.4s-0.2,3.6-2.5,3.9c-1.6,0.3-3.3,0.5-5,0.6
	c-4.4-0.1-6,2.5-6.2,5.7c-0.8,8.8-1.1,17.6-1.3,26.5c-0.2,7.3-0.3,14.7-0.1,22c0.2,7.7,0.8,15.5,1.3,23.2c0.2,3.2,1.5,4.1,4.7,4.4
	c2.3,0.2,4.5,0.6,6.7,1c1.6,0.2,2.8,1.6,2.6,3.3c-0.2,1.8-0.6,3.8-3.4,3.8c-9.1-0.2-18.2-0.3-27.2-0.3c-3.8,0-7.5,0.2-11.3,0.2
	c-2.9,0-4.3-1.6-4.2-4.2c0.1-1.5,0.5-2.6,2.3-2.8c1.6-0.2,3.1-0.8,4.7-0.8c3.8-0.1,6.9-3.2,7-7c0.5-11.1,0.9-22.1,1.3-33.2
	C334.8,178,334.7,175.3,334.7,172.6L334.7,172.6z"/>
<path d="M189.9,373.9c0-11.1,1.9-19.9,6.3-28c3.6-7,9.7-12.4,17.1-15.1c7.5-2.8,15.4-2.9,23.3-1.6c3.9,0.5,7.8,0.9,11.8,1
	c2,0.1,2.9,1,2.7,3c-0.8,6.3-1.4,12.7-2.3,19c-0.1,0.8-1.4,2.1-1.9,2c-1.2-0.2-2.3-0.9-3-1.9c-0.6-1.6-0.9-3.4-1-5.1
	c-0.7-7.3-2.5-9.1-8.6-10.6c-9.1-2.3-17.2-1.3-23.7,6.4c-3.7,4.4-5.6,9.7-6.8,15.2c-1.8,8.3-1.8,16.9,0,25.2
	c1.8,8,4.5,15.5,11.6,20.5c6.5,4.5,13.4,5.2,20.8,2.1c4.3-1.8,7.8-5.1,9.9-9.3c0.8-1.5,1.8-2.1,3.2-1.4c1.4,0.6,2,2.2,1.4,3.6
	c0,0,0,0,0,0c-1,3.5-1.7,7.1-2.9,10.5c-0.6,1.4-1.8,2.6-3.3,3.1c-6.9,1.9-14.1,2.6-21.3,2c-5.6-0.5-11.1-1.8-16-4.8
	c-6.1-3.7-10.2-9.1-13-15.8C191.4,386.7,189.8,379.6,189.9,373.9z"/>
<path d="M281.3,376.6c-8.8-1.3-15-9.2-15.5-19.2c-0.6-11.9,5.4-21.6,15.6-23.3c0.1,1,0.1,2,0.2,3.1c-6.6,1.5-8.9,6.5-9.6,12.3
	c-0.8,6.3-0.4,12.5,3.3,18.1c1,1.5,2.2,3.2,3.8,3.8C281.7,372.6,281.7,374.3,281.3,376.6z"/>
<path d="M283.2,386.8c-5.1,0-10.2,0-15.3,0c-2.4,0-4-1.2-4-3c0-2,1.1-3.3,3.5-3.3c5.5,0,11,0.3,16.4,0.3c4.9,0,9.9-0.2,14.8-0.3
	c2.9,0,4.1,1,4.1,3.3c0,2.1-1.3,3-4.1,3.1C293.4,386.8,288.3,386.8,283.2,386.8z"/>
<path d="M286.9,334.5c7.7,0.4,13,9.2,13.6,14.4c1.8,15.6-2.2,23.3-13.5,27.1c-0.7-2-0.3-3.5,1.8-4.2c3.6-1.4,4.8-4.6,5.6-7.8
	c1.2-4.8,1.2-9.9,0-14.7c-0.8-3.6-2.4-7-5.4-9.4C286.5,337.9,286.5,337.9,286.9,334.5z"/>
</svg>
