<svg id="Layer_1" data-name="Layer 1" xmlns="http://www.w3.org/2000/svg" viewBox="0 0 504.01 335.51"><path d="M6.91,212.05H313.77a15.78,15.78,0,0,0,15.78-15.78V34.64A34.63,34.63,0,0,0,294.92,0H34.62A34.64,34.64,0,0,0,0,34.64V205.15a6.91,6.91,0,0,0,6.9,6.9Z" transform="translate(0)"/><path d="M496.25,246.62l-.05-63.4c0-6.38-3.05-15.7-6.84-20.82l-65.07-88c-3.8-5.13-12-9.28-18.41-9.28H348.29a6.9,6.9,0,0,0-6.9,6.91V208.11a15.78,15.78,0,0,1-15.78,15.78H6.91A6.9,6.9,0,0,0,0,230.79V273a23.09,23.09,0,0,0,23.08,23.08h26a51.3,51.3,0,1,1,102.6,0H363.6a51.29,51.29,0,1,1,102.58,0h14.66A23.1,23.1,0,0,0,504,273V257.46a11.48,11.48,0,0,0-7.75-10.84Zm-47.59-77.77a6.93,6.93,0,0,1-6.93,6.93h-63a6.93,6.93,0,0,1-6.92-6.93V102.51a6.94,6.94,0,0,1,6.92-6.93H395a15.45,15.45,0,0,1,11.05,5.57L444.55,153c2.27,3.08,4.11,7.87,4.11,10.71Z" transform="translate(0)"/><path d="M454.34,296.06a39.46,39.46,0,1,1-39.46-39.46,39.45,39.45,0,0,1,39.46,39.46" transform="translate(0)"/><path d="M139.86,296.06A39.46,39.46,0,1,1,100.4,256.6a39.46,39.46,0,0,1,39.46,39.46" transform="translate(0)"/></svg>